v -1.000000  1.000000 -1.000000
v -1.000000  1.000000  1.000000
v  1.000000  1.000000  1.000000
v  1.000000  1.000000 -1.000000
v -1.000000 -1.000000 -1.000000
v -1.000000 -1.000000  1.000000
v  1.000000 -1.000000  1.000000
v  1.000000 -1.000000 -1.000000

vn  0.000000  1.000000  0.000000
vn  0.000000 -1.000000  0.000000
vn -1.000000  0.000000  0.000000
vn  0.000000  0.000000  1.000000
vn  1.000000  0.000000  0.000000
vn  0.000000  0.000000 -1.000000
vn -1.000000  0.000000  0.000000

uv 0.000000 0.000000
uv 1.000000 0.000000
uv 0.000000 1.000000

f 1/1/1 2/2/1 4/3/1
f 5/1/2 8/2/2 6/3/2
f 1/1/3 5/2/3 2/3/3
f 2/1/4 6/2/4 3/3/4
f 3/1/5 7/2/5 4/3/5
f 5/1/6 1/2/6 8/3/6
f 2/1/1 3/2/1 4/3/1
f 8/1/2 7/2/2 6/3/2
f 5/1/7 6/2/7 2/3/7
f 6/1/4 7/2/4 3/3/4
f 7/1/5 8/2/5 4/3/5
f 1/1/6 4/2/6 8/3/6
